<svg id="Layer_1" data-name="Layer 1" xmlns="http://www.w3.org/2000/svg" viewBox="0 0 1348.25 266.63"><defs><style>.cls-1{fill:#a8763e;stroke:#a8763e;stroke-miterlimit:10;stroke-width:16px;opacity:0.81;}.cls-2{fill:#b6174b;}</style></defs><path class="cls-1" d="M592,510.68a38.23,38.23,0,0,0-9-22.44C577.74,482,571,477,564.13,472.52A350.78,350.78,0,0,0,515,446.72a379.76,379.76,0,0,0-270.1-13.46,389.61,389.61,0,0,0-96.55,46.93c-7.45,5-14.68,10.23-21.76,15.69-1,.74-6.2,4.65-5.19,6.16.88,1.32,6.92-3.48,7.27-3.75L131,496.5l.29-.22.08-.06,1.18-.88q2.67-2,5.37-3.91t5.14-3.59l2.44-1.67.91-.61,1.18-.78c6.75-4.43,14.07-8.91,20.71-12.62a364.31,364.31,0,0,1,45.81-21.63A376.32,376.32,0,0,1,314,426.65a384.39,384.39,0,0,1,213.71,41.68c7.93,4.17,15.75,8.58,23.29,13.39,6.74,4.3,13.29,9.09,18.55,15s9.05,13.36,9.83,21.3c.88,8.87-1.4,17.79-4.59,26a155.69,155.69,0,0,1-22.07,38.32q-3.32,4.29-6.87,8.38-1.61,1.86-3.26,3.66l-.35.37c-.36.39-.73.78-1.1,1.16-.66.7-1.32,1.39-2,2.08q-1.9,1.94-3.87,3.83l-.92.89,0,0c-.78.72-1.56,1.45-2.36,2.17-1.35,1.22-2.71,2.42-4.1,3.61l-.79.67,0,0-2.5,2c-1.34,1.07-2.7,2.13-4.06,3.18l-.19.14-.7.53-2.62,1.9q-2.1,1.5-4.25,3l-.6.41-.77.51c-.82.53-1.63,1.06-2.46,1.58a184.51,184.51,0,0,1-19,10.67,216.06,216.06,0,0,1-41.43,15.32,212.5,212.5,0,0,1-91.29,3.11,235.64,235.64,0,0,1-87.5-35.85A243.88,243.88,0,0,1,248,599.63a247.12,247.12,0,0,0,39.74,10.3c24,4.27,48.81,5.26,72.72.51a144.46,144.46,0,0,0,58.16-25.77c17.17-12.79,32.18-29.07,39.54-49a81.32,81.32,0,0,0,.55-55.07,68.58,68.58,0,0,0-37.41-39.74,87,87,0,0,0-55.57-4.33c-21,5.26-39.92,19.09-53,35.45-11.89,14.82-19.37,33.17-20.1,52a105.83,105.83,0,0,0,.6,13.79c.15,1.64,4.1-1.25,4.61-1.62a28.32,28.32,0,0,0,3.85-3.22c.52-.53,1.9-1.69,1.83-2.46a88.17,88.17,0,0,1,2.28-27.27,94,94,0,0,1,9.64-25.25,84.76,84.76,0,0,1,7.17-10.78q1-1.26,2-2.49c.35-.41.7-.81,1.06-1.21l.61-.69c.67-.71,1.35-1.41,2.05-2.1L329,460l1.26-1.15,1-.85.14-.13.23-.17,1.27-1,.08-.07,0,0c.44-.32.87-.64,1.32-.95l.7-.49c1-.62,1.93-1.22,2.91-1.81s.53-.3.28-.17l1.7-.92c.94-.49,1.89-1,2.86-1.42,1.86-.86,3.91-1.67,5.91-2.38,33.93-12,75.71.26,93.06,31.9,8.69,15.84,10.83,34.48,7.35,51.89a78.75,78.75,0,0,1-9.47,24.86A84.29,84.29,0,0,1,432,568c-.7.85-1.42,1.69-2.15,2.51-.89,1-.65.74-1.6,1.73-.77.8-1.55,1.58-2.34,2.35l-.59.57-1.19,1.08c-.41.38-.83.74-1.25,1.11-.15.13-1,.8-1,.87-.66.54-1.33,1.07-2,1.6l-.48.37c.28-.23-.87.64-1.05.77-1,.73-2,1.42-3,2.13l-.1.06-.28.18-1.43.91c-.95.6-1.91,1.19-2.88,1.76l-.84.48c-.42.25-.85.48-1.28.72-1.19.65-2.4,1.28-3.61,1.9A127.57,127.57,0,0,1,379,598.69c-22.38,5.74-46.18,5.84-69.07,2.78-35.32-4.72-74.94-16.07-99.92-42q-3.53-4.73-6.79-9.63c-4.2-6.28-8.06-12.77-11.61-19.41-.71-1.33-6.64,3.24-7.24,3.73a27.49,27.49,0,0,0-4.08,3.84c-.48.57-1.38,1.49-1.09,2.29a81.38,81.38,0,0,0,17.73,28.26,238.82,238.82,0,0,0,43.63,45,242.34,242.34,0,0,0,86,43.85,215.36,215.36,0,0,0,94.62,4.7,230.88,230.88,0,0,0,87-35C535.46,609,559.54,585.79,576,558a161,161,0,0,0,10.7-21.33C590,528.44,592.5,519.59,592,510.68Z" transform="translate(-113.26 -406.68)"/><path class="cls-2" d="M623.56,466.13c-5.71,0-8.75-1.71-8.75-7.61,0-6.28,3-7.42,8.75-7.42,5.52,0,9,1.14,9,7.42C632.51,464.42,629.08,466.13,623.56,466.13ZM620.71,575l-1.14-1.15V476.6h8.37V575Z" transform="translate(-113.26 -406.68)"/><path class="cls-2" d="M654.59,517.91V575H646v-98.8h5l1.91,18.09c2.85-9.9,11-17.14,26.08-18.47v7.43C660.11,484.41,654.59,496.78,654.59,517.91Zm63,0V575H709V517.91c0-21.13-4.38-33.69-23.79-35v-7.24c18.08.19,26.65,8.76,29.88,22.46,2.48-11.8,10.47-20.55,26.27-22.27v7.43C722.93,484.41,717.6,497,717.6,517.91ZM771.85,575V517.91c0-21.13-4.19-33.69-24-35v-7.24c26.65.19,32.55,17.7,32.55,42.45V575Z" transform="translate(-113.26 -406.68)"/><path class="cls-2" d="M805.54,553.32v59h-8.37V476.6h5.33l1.33,22.46c4-12.56,14.09-22.27,36.36-23.41v7c-28.74,1.15-34.65,18.09-34.65,43.41,0,24,5,41.87,34.65,42.83v6.85C818.87,574.83,809.35,565.5,805.54,553.32ZM846.47,576v-7c27.41-1.72,33.31-18.85,33.31-42.83,0-25.13-5.9-41.88-33.31-43.41v-7c33.69.57,41.88,22.27,41.88,50.45C888.35,553.7,880.16,575.21,846.47,576Z" transform="translate(-113.26 -406.68)"/><path class="cls-2" d="M911.19,521.91V575h-8.38l-.19-98.42h5l1.91,21.13c3.8-13.32,14.84-22.46,39-22.08v7.62C917.66,482.69,911.19,497,911.19,521.91Z" transform="translate(-113.26 -406.68)"/><path class="cls-2" d="M955.54,530.09c.76,20.94,9.52,37.5,35.6,39V576c-34.84-1.72-44.35-25.13-44.35-50.26,0-24.93,9.7-48.54,44.35-50.06v6.85c-27,1.15-35.41,19.8-35.6,40.74h55c0-.38,19.22-.38,19.22-.38.19-22.08-8.57-38.64-32.36-40.36v-6.85c32.74,1.33,42.07,25.7,40.93,54.44ZM997.42,576v-6.85c21.89-1,30.84-13,32.36-24.94h8.76C1036.82,560.55,1025.21,575,997.42,576Z" transform="translate(-113.26 -406.68)"/><path class="cls-2" d="M1046.92,538.09h8.18c0,19,9.52,29.5,32.36,30.84v7.23C1059.29,574.83,1046.72,561.88,1046.92,538.09Zm46.63,38.07v-7c23.42-.58,31.41-10.09,31.41-19,.57-29.7-75.38-12.56-75.57-47.4-.38-15.61,10.66-26.46,38.07-26.84v6.85c-22.65.58-30.08,8.57-29.88,19.61.38,27.22,75.57,11.8,75.57,47.21C1133.15,562.64,1121.92,575.78,1093.55,576.16Zm29.51-64c-.19-16.37-8-28-29.51-29.31v-7.05c26.84,1.33,37.31,16,37.31,36.36Z" transform="translate(-113.26 -406.68)"/><path class="cls-2" d="M1142.09,538.09h8.19c0,19,9.52,29.5,32.36,30.84v7.23C1154.47,574.83,1141.9,561.88,1142.09,538.09Zm46.64,38.07v-7c23.41-.58,31.41-10.09,31.41-19,.57-29.7-75.38-12.56-75.57-47.4-.38-15.61,10.66-26.46,38.07-26.84v6.85c-22.65.58-30.08,8.57-29.89,19.61.38,27.22,75.57,11.8,75.57,47.21C1228.32,562.64,1217.09,575.78,1188.73,576.16Zm29.51-64c-.2-16.37-8-28-29.51-29.31v-7.05c26.84,1.33,37.31,16,37.31,36.36Z" transform="translate(-113.26 -406.68)"/><path class="cls-2" d="M1247,466.13c-5.71,0-8.75-1.71-8.75-7.61,0-6.28,3-7.42,8.75-7.42,5.52,0,9,1.14,9,7.42C1255.93,464.42,1252.5,466.13,1247,466.13ZM1244.13,575l-1.15-1.15V476.6h8.38V575Z" transform="translate(-113.26 -406.68)"/><path class="cls-2" d="M1265.83,525.71c0-24.74,9.13-48.54,44.35-49.87v7.43c-29.12,1.33-36,20.55-36,42.44,0,22.28,6.86,41.69,36,42.83V576C1274.39,574.83,1265.83,550.84,1265.83,525.71ZM1316.27,576v-7.43c28.93-1.33,36.17-20.55,36.17-42.83,0-21.89-7-41.11-36.17-42.44v-7.43c35.22,1.33,44.54,25.13,44.54,49.87C1360.81,551,1351.49,574.64,1316.27,576Z" transform="translate(-113.26 -406.68)"/><path class="cls-2" d="M1383.47,521.91V575h-8.38l-.19-98.42h4.76l2.09,21.32c3.62-12.37,13.33-21.13,34.65-22.08v6.85C1389.37,483.65,1383.47,497.73,1383.47,521.91ZM1454.66,575h-1.14V521.91c0-23.8-4.57-38.07-30.84-39.22v-7c33.12.38,38.83,18.66,38.83,46.83V575Z" transform="translate(-113.26 -406.68)"/></svg>